<mxfile host="Electron" agent="Mozilla/5.0 (X11; Linux x86_64) AppleWebKit/537.36 (KHTML, like Gecko) draw.io/26.1.1 Chrome/132.0.6834.210 Electron/34.3.3 Safari/537.36" version="26.1.1">
  <diagram name="Page-1" id="aeegKRYO5-5cE-at2VME">
    <mxGraphModel dx="1122" dy="1625" grid="1" gridSize="10" guides="1" tooltips="1" connect="1" arrows="1" fold="1" page="1" pageScale="1" pageWidth="1400" pageHeight="850" math="0" shadow="0">
      <root>
        <mxCell id="0" />
        <mxCell id="1" parent="0" />
        <mxCell id="pZ-Yi7UY30Zx4974FCYY-59" value="" style="rounded=0;whiteSpace=wrap;html=1;fillColor=#dae8fc;strokeColor=#6c8ebf;" vertex="1" parent="1">
          <mxGeometry x="620" y="-810" width="140" height="180" as="geometry" />
        </mxCell>
        <mxCell id="pZ-Yi7UY30Zx4974FCYY-34" value="" style="rounded=0;whiteSpace=wrap;html=1;fillColor=#f5f5f5;fontColor=#333333;strokeColor=#666666;" vertex="1" parent="1">
          <mxGeometry x="200" y="-570" width="260" height="160" as="geometry" />
        </mxCell>
        <mxCell id="pZ-Yi7UY30Zx4974FCYY-21" value="" style="rounded=0;whiteSpace=wrap;html=1;fillColor=#f5f5f5;fontColor=#333333;strokeColor=#666666;" vertex="1" parent="1">
          <mxGeometry x="200" y="-260" width="220" height="145" as="geometry" />
        </mxCell>
        <mxCell id="pZ-Yi7UY30Zx4974FCYY-8" value="" style="rounded=0;whiteSpace=wrap;html=1;fillColor=#f5f5f5;fontColor=#333333;strokeColor=#666666;" vertex="1" parent="1">
          <mxGeometry x="200" y="-400" width="560" height="130" as="geometry" />
        </mxCell>
        <mxCell id="jPzO7c27cUPiiFDw-lQR-5" style="edgeStyle=orthogonalEdgeStyle;rounded=0;orthogonalLoop=1;jettySize=auto;html=1;entryX=0;entryY=0.5;entryDx=0;entryDy=0;" parent="1" source="jPzO7c27cUPiiFDw-lQR-1" target="jPzO7c27cUPiiFDw-lQR-4" edge="1">
          <mxGeometry relative="1" as="geometry" />
        </mxCell>
        <mxCell id="jPzO7c27cUPiiFDw-lQR-6" style="edgeStyle=orthogonalEdgeStyle;rounded=0;orthogonalLoop=1;jettySize=auto;html=1;exitX=1;exitY=0.5;exitDx=0;exitDy=0;entryX=0;entryY=0.5;entryDx=0;entryDy=0;" parent="1" source="jPzO7c27cUPiiFDw-lQR-1" target="jPzO7c27cUPiiFDw-lQR-3" edge="1">
          <mxGeometry relative="1" as="geometry" />
        </mxCell>
        <mxCell id="jPzO7c27cUPiiFDw-lQR-7" style="edgeStyle=orthogonalEdgeStyle;rounded=0;orthogonalLoop=1;jettySize=auto;html=1;exitX=1;exitY=0.5;exitDx=0;exitDy=0;entryX=0;entryY=0.5;entryDx=0;entryDy=0;" parent="1" source="jPzO7c27cUPiiFDw-lQR-1" target="jPzO7c27cUPiiFDw-lQR-2" edge="1">
          <mxGeometry relative="1" as="geometry" />
        </mxCell>
        <mxCell id="jPzO7c27cUPiiFDw-lQR-1" value="LOGIN&lt;br&gt;(Page par défaut)" style="rounded=0;whiteSpace=wrap;html=1;fillColor=#f5f5f5;fontColor=#333333;strokeColor=#666666;" parent="1" vertex="1">
          <mxGeometry x="60" y="-790" width="120" height="60" as="geometry" />
        </mxCell>
        <mxCell id="jPzO7c27cUPiiFDw-lQR-8" style="edgeStyle=orthogonalEdgeStyle;rounded=0;orthogonalLoop=1;jettySize=auto;html=1;exitX=1;exitY=0.5;exitDx=0;exitDy=0;entryX=0;entryY=0.5;entryDx=0;entryDy=0;" parent="1" source="jPzO7c27cUPiiFDw-lQR-2" target="jPzO7c27cUPiiFDw-lQR-1" edge="1">
          <mxGeometry relative="1" as="geometry">
            <Array as="points">
              <mxPoint x="380" y="-760" />
              <mxPoint x="380" y="-810" />
              <mxPoint x="40" y="-810" />
              <mxPoint x="40" y="-760" />
            </Array>
          </mxGeometry>
        </mxCell>
        <mxCell id="jPzO7c27cUPiiFDw-lQR-2" value="MDP oublié" style="rounded=0;whiteSpace=wrap;html=1;fillColor=#f5f5f5;fontColor=#333333;strokeColor=#666666;" parent="1" vertex="1">
          <mxGeometry x="240" y="-790" width="120" height="60" as="geometry" />
        </mxCell>
        <mxCell id="jPzO7c27cUPiiFDw-lQR-9" style="edgeStyle=orthogonalEdgeStyle;rounded=0;orthogonalLoop=1;jettySize=auto;html=1;exitX=1;exitY=0.5;exitDx=0;exitDy=0;entryX=0;entryY=0.5;entryDx=0;entryDy=0;" parent="1" source="jPzO7c27cUPiiFDw-lQR-3" target="jPzO7c27cUPiiFDw-lQR-1" edge="1">
          <mxGeometry relative="1" as="geometry">
            <Array as="points">
              <mxPoint x="380" y="-690" />
              <mxPoint x="380" y="-810" />
              <mxPoint x="40" y="-810" />
              <mxPoint x="40" y="-760" />
            </Array>
          </mxGeometry>
        </mxCell>
        <mxCell id="jPzO7c27cUPiiFDw-lQR-3" value="1ère connection" style="rounded=0;whiteSpace=wrap;html=1;fillColor=#f5f5f5;fontColor=#333333;strokeColor=#666666;" parent="1" vertex="1">
          <mxGeometry x="240" y="-720" width="120" height="60" as="geometry" />
        </mxCell>
        <mxCell id="jPzO7c27cUPiiFDw-lQR-4" value="IHM&lt;div&gt;(page blanche)&lt;/div&gt;" style="rounded=0;whiteSpace=wrap;html=1;dashed=1;" parent="1" vertex="1">
          <mxGeometry x="240" y="-650" width="120" height="60" as="geometry" />
        </mxCell>
        <mxCell id="jPzO7c27cUPiiFDw-lQR-10" style="edgeStyle=orthogonalEdgeStyle;rounded=0;orthogonalLoop=1;jettySize=auto;html=1;exitX=1;exitY=0.5;exitDx=0;exitDy=0;entryX=0;entryY=0.5;entryDx=0;entryDy=0;" parent="1" source="jPzO7c27cUPiiFDw-lQR-1" target="jPzO7c27cUPiiFDw-lQR-1" edge="1">
          <mxGeometry relative="1" as="geometry">
            <Array as="points">
              <mxPoint x="200" y="-760" />
              <mxPoint x="200" y="-710" />
              <mxPoint x="40" y="-710" />
              <mxPoint x="40" y="-760" />
            </Array>
          </mxGeometry>
        </mxCell>
        <mxCell id="EGg_txcHFTx_nLEDhPUZ-3" value="" style="ellipse;whiteSpace=wrap;html=1;aspect=fixed;fillColor=#e51400;fontColor=#ffffff;strokeColor=#B20000;" parent="1" vertex="1">
          <mxGeometry x="170" y="-800" width="20" height="20" as="geometry" />
        </mxCell>
        <mxCell id="pZ-Yi7UY30Zx4974FCYY-9" style="rounded=0;orthogonalLoop=1;jettySize=auto;html=1;exitX=1;exitY=0;exitDx=0;exitDy=0;entryX=0;entryY=0;entryDx=0;entryDy=0;endArrow=none;startFill=0;dashed=1;" edge="1" parent="1" source="pZ-Yi7UY30Zx4974FCYY-1" target="pZ-Yi7UY30Zx4974FCYY-8">
          <mxGeometry relative="1" as="geometry" />
        </mxCell>
        <mxCell id="pZ-Yi7UY30Zx4974FCYY-10" style="rounded=0;orthogonalLoop=1;jettySize=auto;html=1;exitX=1;exitY=1;exitDx=0;exitDy=0;entryX=0;entryY=1;entryDx=0;entryDy=0;endArrow=none;startFill=0;dashed=1;" edge="1" parent="1" source="pZ-Yi7UY30Zx4974FCYY-1" target="pZ-Yi7UY30Zx4974FCYY-8">
          <mxGeometry relative="1" as="geometry" />
        </mxCell>
        <mxCell id="pZ-Yi7UY30Zx4974FCYY-1" value="MDP oublié" style="rounded=0;whiteSpace=wrap;html=1;fillColor=#f5f5f5;fontColor=#333333;strokeColor=#666666;" vertex="1" parent="1">
          <mxGeometry x="50" y="-350" width="120" height="60" as="geometry" />
        </mxCell>
        <mxCell id="pZ-Yi7UY30Zx4974FCYY-4" style="edgeStyle=orthogonalEdgeStyle;rounded=0;orthogonalLoop=1;jettySize=auto;html=1;entryX=0;entryY=0.5;entryDx=0;entryDy=0;" edge="1" parent="1" source="pZ-Yi7UY30Zx4974FCYY-2" target="pZ-Yi7UY30Zx4974FCYY-3">
          <mxGeometry relative="1" as="geometry" />
        </mxCell>
        <mxCell id="pZ-Yi7UY30Zx4974FCYY-2" value="Demande identifiant" style="rounded=0;whiteSpace=wrap;html=1;" vertex="1" parent="1">
          <mxGeometry x="240" y="-350" width="120" height="60" as="geometry" />
        </mxCell>
        <mxCell id="pZ-Yi7UY30Zx4974FCYY-15" style="edgeStyle=orthogonalEdgeStyle;rounded=0;orthogonalLoop=1;jettySize=auto;html=1;entryX=0;entryY=0.5;entryDx=0;entryDy=0;" edge="1" parent="1" source="pZ-Yi7UY30Zx4974FCYY-3" target="pZ-Yi7UY30Zx4974FCYY-14">
          <mxGeometry relative="1" as="geometry" />
        </mxCell>
        <mxCell id="pZ-Yi7UY30Zx4974FCYY-3" value="Demande code envoyé par mail" style="rounded=0;whiteSpace=wrap;html=1;" vertex="1" parent="1">
          <mxGeometry x="440" y="-350" width="120" height="60" as="geometry" />
        </mxCell>
        <mxCell id="pZ-Yi7UY30Zx4974FCYY-5" value="Identifiant existant" style="text;html=1;align=center;verticalAlign=middle;whiteSpace=wrap;rounded=0;" vertex="1" parent="1">
          <mxGeometry x="370" y="-320" width="60" height="30" as="geometry" />
        </mxCell>
        <mxCell id="pZ-Yi7UY30Zx4974FCYY-6" style="edgeStyle=orthogonalEdgeStyle;rounded=0;orthogonalLoop=1;jettySize=auto;html=1;exitX=0.5;exitY=0;exitDx=0;exitDy=0;entryX=0;entryY=0.25;entryDx=0;entryDy=0;" edge="1" parent="1" source="pZ-Yi7UY30Zx4974FCYY-2" target="pZ-Yi7UY30Zx4974FCYY-2">
          <mxGeometry relative="1" as="geometry">
            <Array as="points">
              <mxPoint x="300" y="-370" />
              <mxPoint x="220" y="-370" />
              <mxPoint x="220" y="-335" />
            </Array>
          </mxGeometry>
        </mxCell>
        <mxCell id="pZ-Yi7UY30Zx4974FCYY-7" value="Identifiant non existant" style="text;html=1;align=center;verticalAlign=middle;whiteSpace=wrap;rounded=0;" vertex="1" parent="1">
          <mxGeometry x="300" y="-390" width="60" height="30" as="geometry" />
        </mxCell>
        <mxCell id="pZ-Yi7UY30Zx4974FCYY-11" style="edgeStyle=orthogonalEdgeStyle;rounded=0;orthogonalLoop=1;jettySize=auto;html=1;entryX=0;entryY=0.5;entryDx=0;entryDy=0;" edge="1" parent="1" target="pZ-Yi7UY30Zx4974FCYY-2">
          <mxGeometry relative="1" as="geometry">
            <mxPoint x="190" y="-320" as="sourcePoint" />
            <Array as="points">
              <mxPoint x="200" y="-320" />
            </Array>
          </mxGeometry>
        </mxCell>
        <mxCell id="pZ-Yi7UY30Zx4974FCYY-16" style="edgeStyle=orthogonalEdgeStyle;rounded=0;orthogonalLoop=1;jettySize=auto;html=1;exitX=1;exitY=0.5;exitDx=0;exitDy=0;" edge="1" parent="1">
          <mxGeometry relative="1" as="geometry">
            <mxPoint x="770" y="-319.9969230769231" as="targetPoint" />
            <mxPoint x="680" y="-319.92" as="sourcePoint" />
          </mxGeometry>
        </mxCell>
        <mxCell id="pZ-Yi7UY30Zx4974FCYY-14" value="Changement de mot de passe" style="rounded=0;whiteSpace=wrap;html=1;" vertex="1" parent="1">
          <mxGeometry x="620" y="-350" width="120" height="60" as="geometry" />
        </mxCell>
        <mxCell id="pZ-Yi7UY30Zx4974FCYY-17" value="Code bon" style="text;html=1;align=center;verticalAlign=middle;whiteSpace=wrap;rounded=0;" vertex="1" parent="1">
          <mxGeometry x="560" y="-320" width="60" height="30" as="geometry" />
        </mxCell>
        <mxCell id="pZ-Yi7UY30Zx4974FCYY-18" style="edgeStyle=orthogonalEdgeStyle;rounded=0;orthogonalLoop=1;jettySize=auto;html=1;entryX=0;entryY=0.25;entryDx=0;entryDy=0;" edge="1" parent="1" source="pZ-Yi7UY30Zx4974FCYY-3" target="pZ-Yi7UY30Zx4974FCYY-3">
          <mxGeometry relative="1" as="geometry">
            <Array as="points">
              <mxPoint x="500" y="-370" />
              <mxPoint x="420" y="-370" />
              <mxPoint x="420" y="-335" />
            </Array>
          </mxGeometry>
        </mxCell>
        <mxCell id="pZ-Yi7UY30Zx4974FCYY-19" value="Code mauvais" style="text;html=1;align=center;verticalAlign=middle;whiteSpace=wrap;rounded=0;" vertex="1" parent="1">
          <mxGeometry x="500" y="-380" width="60" height="30" as="geometry" />
        </mxCell>
        <mxCell id="pZ-Yi7UY30Zx4974FCYY-32" style="edgeStyle=orthogonalEdgeStyle;rounded=0;orthogonalLoop=1;jettySize=auto;html=1;entryX=0;entryY=0.5;entryDx=0;entryDy=0;" edge="1" parent="1" target="pZ-Yi7UY30Zx4974FCYY-24">
          <mxGeometry relative="1" as="geometry">
            <mxPoint x="190" y="-195" as="sourcePoint" />
          </mxGeometry>
        </mxCell>
        <mxCell id="pZ-Yi7UY30Zx4974FCYY-20" value="1ere connection" style="rounded=0;whiteSpace=wrap;html=1;fillColor=#f5f5f5;fontColor=#333333;strokeColor=#666666;" vertex="1" parent="1">
          <mxGeometry x="50" y="-225" width="120" height="60" as="geometry" />
        </mxCell>
        <mxCell id="pZ-Yi7UY30Zx4974FCYY-22" style="rounded=0;orthogonalLoop=1;jettySize=auto;html=1;exitX=1;exitY=1;exitDx=0;exitDy=0;entryX=0;entryY=1;entryDx=0;entryDy=0;endArrow=none;startFill=0;dashed=1;" edge="1" parent="1" source="pZ-Yi7UY30Zx4974FCYY-20" target="pZ-Yi7UY30Zx4974FCYY-21">
          <mxGeometry relative="1" as="geometry">
            <mxPoint x="180" y="-295" as="sourcePoint" />
            <mxPoint x="210" y="-275" as="targetPoint" />
          </mxGeometry>
        </mxCell>
        <mxCell id="pZ-Yi7UY30Zx4974FCYY-23" style="rounded=0;orthogonalLoop=1;jettySize=auto;html=1;exitX=1;exitY=0;exitDx=0;exitDy=0;entryX=0;entryY=0;entryDx=0;entryDy=0;endArrow=none;startFill=0;dashed=1;" edge="1" parent="1" source="pZ-Yi7UY30Zx4974FCYY-20" target="pZ-Yi7UY30Zx4974FCYY-21">
          <mxGeometry relative="1" as="geometry">
            <mxPoint x="190" y="-285" as="sourcePoint" />
            <mxPoint x="220" y="-265" as="targetPoint" />
          </mxGeometry>
        </mxCell>
        <mxCell id="pZ-Yi7UY30Zx4974FCYY-26" style="edgeStyle=orthogonalEdgeStyle;rounded=0;orthogonalLoop=1;jettySize=auto;html=1;exitX=1;exitY=0.5;exitDx=0;exitDy=0;" edge="1" parent="1" source="pZ-Yi7UY30Zx4974FCYY-24">
          <mxGeometry relative="1" as="geometry">
            <mxPoint x="430" y="-194.83333333333326" as="targetPoint" />
          </mxGeometry>
        </mxCell>
        <mxCell id="pZ-Yi7UY30Zx4974FCYY-24" value="Demande MDP, nouveau MDP, confirmation MDP" style="rounded=0;whiteSpace=wrap;html=1;" vertex="1" parent="1">
          <mxGeometry x="240" y="-225" width="120" height="60" as="geometry" />
        </mxCell>
        <mxCell id="pZ-Yi7UY30Zx4974FCYY-27" value="Tout est valide" style="text;html=1;align=center;verticalAlign=middle;whiteSpace=wrap;rounded=0;" vertex="1" parent="1">
          <mxGeometry x="360" y="-195" width="60" height="30" as="geometry" />
        </mxCell>
        <mxCell id="pZ-Yi7UY30Zx4974FCYY-28" style="edgeStyle=orthogonalEdgeStyle;rounded=0;orthogonalLoop=1;jettySize=auto;html=1;exitX=0.5;exitY=0;exitDx=0;exitDy=0;entryX=0;entryY=0.25;entryDx=0;entryDy=0;" edge="1" parent="1" source="pZ-Yi7UY30Zx4974FCYY-24" target="pZ-Yi7UY30Zx4974FCYY-24">
          <mxGeometry relative="1" as="geometry">
            <Array as="points">
              <mxPoint x="300" y="-245" />
              <mxPoint x="220" y="-245" />
              <mxPoint x="220" y="-210" />
            </Array>
          </mxGeometry>
        </mxCell>
        <mxCell id="pZ-Yi7UY30Zx4974FCYY-29" value="MDP invalide" style="text;html=1;align=center;verticalAlign=middle;whiteSpace=wrap;rounded=0;" vertex="1" parent="1">
          <mxGeometry x="300" y="-255" width="60" height="30" as="geometry" />
        </mxCell>
        <mxCell id="pZ-Yi7UY30Zx4974FCYY-30" style="edgeStyle=orthogonalEdgeStyle;rounded=0;orthogonalLoop=1;jettySize=auto;html=1;exitX=0.5;exitY=1;exitDx=0;exitDy=0;entryX=0;entryY=0.75;entryDx=0;entryDy=0;" edge="1" parent="1" source="pZ-Yi7UY30Zx4974FCYY-24" target="pZ-Yi7UY30Zx4974FCYY-24">
          <mxGeometry relative="1" as="geometry">
            <Array as="points">
              <mxPoint x="300" y="-145" />
              <mxPoint x="220" y="-145" />
              <mxPoint x="220" y="-180" />
            </Array>
          </mxGeometry>
        </mxCell>
        <mxCell id="pZ-Yi7UY30Zx4974FCYY-31" value="Nouveau MDP invalide" style="text;html=1;align=center;verticalAlign=middle;whiteSpace=wrap;rounded=0;" vertex="1" parent="1">
          <mxGeometry x="300" y="-155" width="60" height="30" as="geometry" />
        </mxCell>
        <mxCell id="pZ-Yi7UY30Zx4974FCYY-33" value="LOGIN&lt;br&gt;(Page par défaut)" style="rounded=0;whiteSpace=wrap;html=1;fillColor=#f5f5f5;fontColor=#333333;strokeColor=#666666;" vertex="1" parent="1">
          <mxGeometry x="50" y="-510" width="120" height="60" as="geometry" />
        </mxCell>
        <mxCell id="pZ-Yi7UY30Zx4974FCYY-35" style="rounded=0;orthogonalLoop=1;jettySize=auto;html=1;exitX=1;exitY=1;exitDx=0;exitDy=0;entryX=0;entryY=1;entryDx=0;entryDy=0;endArrow=none;startFill=0;dashed=1;" edge="1" parent="1" source="pZ-Yi7UY30Zx4974FCYY-33" target="pZ-Yi7UY30Zx4974FCYY-34">
          <mxGeometry relative="1" as="geometry">
            <mxPoint x="180" y="-340" as="sourcePoint" />
            <mxPoint x="210" y="-390" as="targetPoint" />
          </mxGeometry>
        </mxCell>
        <mxCell id="pZ-Yi7UY30Zx4974FCYY-36" style="rounded=0;orthogonalLoop=1;jettySize=auto;html=1;exitX=1;exitY=0;exitDx=0;exitDy=0;entryX=0;entryY=0;entryDx=0;entryDy=0;endArrow=none;startFill=0;dashed=1;" edge="1" parent="1" source="pZ-Yi7UY30Zx4974FCYY-33" target="pZ-Yi7UY30Zx4974FCYY-34">
          <mxGeometry relative="1" as="geometry">
            <mxPoint x="190" y="-330" as="sourcePoint" />
            <mxPoint x="220" y="-380" as="targetPoint" />
          </mxGeometry>
        </mxCell>
        <mxCell id="pZ-Yi7UY30Zx4974FCYY-43" style="edgeStyle=orthogonalEdgeStyle;rounded=0;orthogonalLoop=1;jettySize=auto;html=1;exitX=1;exitY=0.5;exitDx=0;exitDy=0;entryX=0;entryY=0.5;entryDx=0;entryDy=0;" edge="1" parent="1" source="pZ-Yi7UY30Zx4974FCYY-37" target="pZ-Yi7UY30Zx4974FCYY-50">
          <mxGeometry relative="1" as="geometry">
            <mxPoint x="470" y="-495" as="targetPoint" />
          </mxGeometry>
        </mxCell>
        <mxCell id="pZ-Yi7UY30Zx4974FCYY-45" style="edgeStyle=orthogonalEdgeStyle;rounded=0;orthogonalLoop=1;jettySize=auto;html=1;exitX=1;exitY=0.25;exitDx=0;exitDy=0;" edge="1" parent="1" source="pZ-Yi7UY30Zx4974FCYY-37">
          <mxGeometry relative="1" as="geometry">
            <mxPoint x="470" y="-540" as="targetPoint" />
            <Array as="points">
              <mxPoint x="400" y="-510" />
              <mxPoint x="400" y="-540" />
              <mxPoint x="470" y="-540" />
            </Array>
          </mxGeometry>
        </mxCell>
        <mxCell id="pZ-Yi7UY30Zx4974FCYY-47" style="edgeStyle=orthogonalEdgeStyle;rounded=0;orthogonalLoop=1;jettySize=auto;html=1;exitX=1;exitY=0.75;exitDx=0;exitDy=0;" edge="1" parent="1" source="pZ-Yi7UY30Zx4974FCYY-37">
          <mxGeometry relative="1" as="geometry">
            <mxPoint x="470" y="-460" as="targetPoint" />
            <Array as="points">
              <mxPoint x="400" y="-480" />
              <mxPoint x="400" y="-460" />
            </Array>
          </mxGeometry>
        </mxCell>
        <mxCell id="pZ-Yi7UY30Zx4974FCYY-37" value="Demande LOGIN,&lt;div&gt;MDP&lt;/div&gt;&lt;div&gt;Proposition MDP oublié&lt;/div&gt;" style="rounded=0;whiteSpace=wrap;html=1;" vertex="1" parent="1">
          <mxGeometry x="240" y="-525" width="120" height="60" as="geometry" />
        </mxCell>
        <mxCell id="pZ-Yi7UY30Zx4974FCYY-38" style="edgeStyle=orthogonalEdgeStyle;rounded=0;orthogonalLoop=1;jettySize=auto;html=1;entryX=0;entryY=0.5;entryDx=0;entryDy=0;" edge="1" parent="1" target="pZ-Yi7UY30Zx4974FCYY-37">
          <mxGeometry relative="1" as="geometry">
            <mxPoint x="190" y="-495" as="sourcePoint" />
            <mxPoint x="250" y="-310" as="targetPoint" />
            <Array as="points">
              <mxPoint x="200" y="-495" />
            </Array>
          </mxGeometry>
        </mxCell>
        <mxCell id="pZ-Yi7UY30Zx4974FCYY-39" style="edgeStyle=orthogonalEdgeStyle;rounded=0;orthogonalLoop=1;jettySize=auto;html=1;exitX=0.5;exitY=0;exitDx=0;exitDy=0;entryX=0;entryY=0.25;entryDx=0;entryDy=0;" edge="1" parent="1" source="pZ-Yi7UY30Zx4974FCYY-37" target="pZ-Yi7UY30Zx4974FCYY-37">
          <mxGeometry relative="1" as="geometry">
            <Array as="points">
              <mxPoint x="300" y="-545" />
              <mxPoint x="220" y="-545" />
              <mxPoint x="220" y="-510" />
            </Array>
          </mxGeometry>
        </mxCell>
        <mxCell id="pZ-Yi7UY30Zx4974FCYY-40" value="Identifiant non existant" style="text;html=1;align=center;verticalAlign=middle;whiteSpace=wrap;rounded=0;" vertex="1" parent="1">
          <mxGeometry x="300" y="-560" width="60" height="30" as="geometry" />
        </mxCell>
        <mxCell id="pZ-Yi7UY30Zx4974FCYY-41" style="edgeStyle=orthogonalEdgeStyle;rounded=0;orthogonalLoop=1;jettySize=auto;html=1;exitX=0.5;exitY=1;exitDx=0;exitDy=0;entryX=0;entryY=0.75;entryDx=0;entryDy=0;" edge="1" parent="1" source="pZ-Yi7UY30Zx4974FCYY-37" target="pZ-Yi7UY30Zx4974FCYY-37">
          <mxGeometry relative="1" as="geometry">
            <Array as="points">
              <mxPoint x="300" y="-445" />
              <mxPoint x="220" y="-445" />
              <mxPoint x="220" y="-480" />
            </Array>
          </mxGeometry>
        </mxCell>
        <mxCell id="pZ-Yi7UY30Zx4974FCYY-42" value="MDP incorrect" style="text;html=1;align=center;verticalAlign=middle;whiteSpace=wrap;rounded=0;" vertex="1" parent="1">
          <mxGeometry x="300" y="-465" width="60" height="30" as="geometry" />
        </mxCell>
        <mxCell id="pZ-Yi7UY30Zx4974FCYY-44" value="Correct" style="text;html=1;align=center;verticalAlign=middle;whiteSpace=wrap;rounded=0;" vertex="1" parent="1">
          <mxGeometry x="400" y="-525" width="60" height="30" as="geometry" />
        </mxCell>
        <mxCell id="pZ-Yi7UY30Zx4974FCYY-46" value="MDP oublié" style="text;html=1;align=center;verticalAlign=middle;whiteSpace=wrap;rounded=0;" vertex="1" parent="1">
          <mxGeometry x="400" y="-570" width="60" height="30" as="geometry" />
        </mxCell>
        <mxCell id="pZ-Yi7UY30Zx4974FCYY-48" value="Correct, 1ère connection" style="text;html=1;align=center;verticalAlign=middle;whiteSpace=wrap;rounded=0;" vertex="1" parent="1">
          <mxGeometry x="400" y="-450" width="60" height="30" as="geometry" />
        </mxCell>
        <mxCell id="pZ-Yi7UY30Zx4974FCYY-50" value="IHM" style="rounded=0;whiteSpace=wrap;html=1;dashed=1;" vertex="1" parent="1">
          <mxGeometry x="470" y="-510" width="90" height="30" as="geometry" />
        </mxCell>
        <mxCell id="pZ-Yi7UY30Zx4974FCYY-51" value="1ère connexion" style="rounded=0;whiteSpace=wrap;html=1;fillColor=#f5f5f5;fontColor=#333333;strokeColor=#666666;" vertex="1" parent="1">
          <mxGeometry x="470" y="-470" width="90" height="30" as="geometry" />
        </mxCell>
        <mxCell id="pZ-Yi7UY30Zx4974FCYY-52" value="MDP oublié" style="rounded=0;whiteSpace=wrap;html=1;fillColor=#f5f5f5;fontColor=#333333;strokeColor=#666666;" vertex="1" parent="1">
          <mxGeometry x="470" y="-555" width="90" height="30" as="geometry" />
        </mxCell>
        <mxCell id="pZ-Yi7UY30Zx4974FCYY-53" value="Bloc" style="rounded=0;whiteSpace=wrap;html=1;fillColor=#f5f5f5;fontColor=#333333;strokeColor=#666666;" vertex="1" parent="1">
          <mxGeometry x="630" y="-780" width="120" height="30" as="geometry" />
        </mxCell>
        <mxCell id="pZ-Yi7UY30Zx4974FCYY-54" value="Page" style="rounded=0;whiteSpace=wrap;html=1;" vertex="1" parent="1">
          <mxGeometry x="630" y="-740" width="120" height="30" as="geometry" />
        </mxCell>
        <mxCell id="pZ-Yi7UY30Zx4974FCYY-55" value="Page vide" style="rounded=0;whiteSpace=wrap;html=1;dashed=1;" vertex="1" parent="1">
          <mxGeometry x="630" y="-700" width="120" height="30" as="geometry" />
        </mxCell>
        <mxCell id="pZ-Yi7UY30Zx4974FCYY-56" value="" style="ellipse;whiteSpace=wrap;html=1;aspect=fixed;fillColor=#e51400;fontColor=#ffffff;strokeColor=#B20000;" vertex="1" parent="1">
          <mxGeometry x="630" y="-660" width="20" height="20" as="geometry" />
        </mxCell>
        <mxCell id="pZ-Yi7UY30Zx4974FCYY-57" value="Point de départ" style="text;html=1;align=center;verticalAlign=middle;whiteSpace=wrap;rounded=0;" vertex="1" parent="1">
          <mxGeometry x="650" y="-665" width="100" height="30" as="geometry" />
        </mxCell>
        <mxCell id="pZ-Yi7UY30Zx4974FCYY-58" value="Légende" style="text;html=1;align=center;verticalAlign=middle;whiteSpace=wrap;rounded=0;" vertex="1" parent="1">
          <mxGeometry x="630" y="-810" width="60" height="30" as="geometry" />
        </mxCell>
      </root>
    </mxGraphModel>
  </diagram>
</mxfile>
